<svg xmlns="http://www.w3.org/2000/svg"><style>:root svg:not(:target){display:none}</style><svg fill="none" id="htmlacademy-mobile" viewBox="0 0 20 24"><path d="M10.111 0h-.074L0 .985V18.37L10.037 24 20 18.37V.984L10.111 0Zm8.476 8.516-8.55-4.786v-.07h-.074l-.075-.07v.07L1.413 8.516V2.182l8.55-.845 8.624.845v6.334Zm-8.624-3.73 8.55 4.715-3.346 1.83-5.279-2.956v.986l4.387 2.463-.67.352-3.717-2.111v.985l2.826 1.619-.595.351-2.23-1.266v.985l1.412.774-1.338.774-8.476-4.715 8.476-4.786Zm-8.55 5.842 8.475 4.786v.703L4.015 12.81v.986l5.948 3.378v.774L4.015 14.64v.986l5.948 3.378 6.022-3.449v-3.66l2.528-1.407v7.038l-8.55 4.856-8.55-4.786v-6.967Z" fill="#000"></path></svg><svg fill="none" id="htmlacademy" viewBox="0 0 26 32"><path d="M13.145 0h-.097L0 1.314v23.179L13.048 32 26 24.493V1.313L13.145 0Zm11.019 11.355L13.048 4.974V4.88h-.096l-.097-.094v.094L1.836 11.355V2.909l11.116-1.126 11.212 1.126v8.446ZM12.952 6.38l11.115 6.288-4.35 2.44-6.862-3.942v1.314l5.703 3.284-.87.47-4.833-2.816v1.314l3.673 2.159-.773.469-2.9-1.69v1.314l1.836 1.033-1.74 1.032-11.018-6.288 11.019-6.38Zm-11.116 7.79 11.019 6.38v.939l-7.636-4.41v1.313l7.733 4.504v1.033l-7.733-4.41v1.313l7.733 4.504 7.829-4.598v-4.88l3.286-1.877v9.385l-11.115 6.475L1.836 23.46v-9.29Z" fill="#000"></path></svg><svg fill="none" id="logo-mobile" viewBox="0 0 52 52"><path d="M14.408 18.444s-1.863 1.12-2.278 2.959c-.416 1.84 0 3.853 0 3.853s-2.922 1.206-2.922 4.997c0 3.79 2.464 4.862 2.464 4.862s.03 4.475 2.787 6.887c2.759 2.413 5.653 2.425 5.653 2.425s1.505 3.184 5.933 3.184 5.933-3.184 5.933-3.184 2.998-.438 5.653-2.425c2.654-1.986 2.581-6.887 2.581-6.887s2.67-1.07 2.67-4.862-2.922-4.996-2.922-4.996.416-2.015 0-3.854c-.417-1.84-2.279-2.959-2.279-2.959" fill="#B22EC8"></path><path d="M40.046 24.143c0-7.742-6.276-9.922-14.017-9.922-7.74 0-14.017 2.18-14.017 9.922 0 7.74 6.276 14.017 14.017 14.017 7.74 0 14.017-6.277 14.017-14.017Z" fill="#B22EC8"></path><path d="M26.475 47.6s3.79-2.65 3.542-8.747c1.63-1.696 2.136-3.974.655-6.743 2.501-3.565 2.241-7.422-.75-10.345 1.232-1.78.587-3.321-.807-4.479 0 0 4.012 1.967 7.085-.846 0 0 6.459 4.644 3.76 8.817 0 0 7.131 4.819.253 9.858 0 0 1.004 7.68-8.06 9.28 0 0-2.386 2.702-5.678 3.205Z" fill="#6A107A"></path><path d="M40.286 8.134c-3.084 14.392-12.549 9.485-13.835 6.954-1.286-2.531-.044-12.609 13.835-6.955Z" fill="#0F805D"></path><path d="M11.804 8.134c3.084 14.392 12.549 9.485 13.835 6.954 1.285-2.531.043-12.609-13.835-6.955Z" fill="#0F805D"></path><path d="M40.285 8.134c-3.083 14.392-12.548 9.485-13.834 6.954-1.286-2.531-.044-12.609 13.834-6.955v0Z" stroke="#000" stroke-width="2" stroke-miterlimit="10" stroke-linecap="round" stroke-linejoin="round"></path><path d="M32.913 11.046c-2.26.868-5.156 2.264-6.438 4.084M11.803 8.134c3.084 14.392 12.549 9.485 13.835 6.954 1.285-2.531.043-12.609-13.835-6.955v0Z" stroke="#000" stroke-width="2" stroke-miterlimit="10" stroke-linecap="round" stroke-linejoin="round"></path><path d="M19.176 11.046c2.262.868 5.156 2.264 6.439 4.084m-11.207 3.314s-1.863 1.12-2.278 2.959c-.416 1.84 0 3.853 0 3.853s-2.922 1.206-2.922 4.997c0 3.79 2.464 4.862 2.464 4.862s.03 4.475 2.787 6.887c2.759 2.413 5.653 2.425 5.653 2.425s1.505 3.184 5.933 3.184 5.933-3.184 5.933-3.184 2.998-.438 5.653-2.425c2.654-1.986 2.581-6.887 2.581-6.887s2.67-1.07 2.67-4.862-2.922-4.996-2.922-4.996.416-2.015 0-3.854c-.417-1.84-2.279-2.959-2.279-2.959" stroke="#000" stroke-width="2" stroke-miterlimit="10" stroke-linecap="round" stroke-linejoin="round"></path><path d="M30.509 21.288s-1.89 1.998-4.221 1.998m-4.382-1.998s1.89 1.998 4.221 1.998m10.029 5.26c0 2.088-1.793 3.78-4.003 3.78m-4.158-3.78c0 2.088 1.793 3.78 4.004 3.78m-7.528-3.78c0 2.088-1.793 3.78-4.004 3.78m-4.157-3.78c0 2.088 1.792 3.78 4.004 3.78m9.95 6.574c-.753 1.004-2.282 1.69-4.045 1.69m-4.306-1.812c.718 1.069 2.299 1.812 4.132 1.812m-4.169-1.554c0 .896-.555 1.704-1.443 2.27m9.875-2.27c0 .977.66 1.85 1.69 2.418" stroke="#000" stroke-width="2" stroke-miterlimit="10" stroke-linecap="round" stroke-linejoin="round"></path><path d="M16.908 30.819c0 1.708-1.2 3.152-2.847 3.62m4.003-13.177c0 2.235-1.793 4.048-4.004 4.048m19.431-4.048c0 2.235 1.793 4.048 4.004 4.048M35.57 30.82c0 1.632 1.095 3.022 2.629 3.553" stroke="#000" stroke-width="2" stroke-miterlimit="10" stroke-linecap="round" stroke-linejoin="round"></path></svg><svg fill="none" id="logo" viewBox="0 0 135 60"><path d="M16.625 21.282s-2.15 1.29-2.63 3.413c-.478 2.123 0 4.447 0 4.447s-3.37 1.39-3.37 5.765c0 4.374 2.843 5.61 2.843 5.61s.034 5.163 3.216 7.947c3.183 2.784 6.522 2.798 6.522 2.798s1.736 3.673 6.846 3.673c5.109 0 6.846-3.673 6.846-3.673s3.459-.505 6.522-2.798c3.063-2.291 2.98-7.946 2.98-7.946s3.08-1.236 3.08-5.611-3.372-5.764-3.372-5.764.48-2.325 0-4.448c-.481-2.122-2.63-3.413-2.63-3.413" fill="#B22EC8"></path><path d="M46.207 27.857c0-8.933-7.242-11.449-16.174-11.449-8.931 0-16.173 2.517-16.173 11.449 0 8.931 7.242 16.173 16.173 16.173 8.932 0 16.174-7.242 16.174-16.173Z" fill="#B22EC8"></path><path d="M30.547 54.923s4.374-3.058 4.088-10.092c1.88-1.957 2.464-4.586.756-7.781 2.886-4.113 2.586-8.563-.867-11.937 1.423-2.053.678-3.831-.93-5.167 0 0 4.63 2.27 8.175-.976 0 0 7.453 5.358 4.339 10.172 0 0 8.228 5.561.291 11.375 0 0 1.16 8.863-9.3 10.709 0 0-2.753 3.117-6.551 3.697Z" fill="#6A107A"></path><path d="M46.483 9.385C42.925 25.991 32.004 20.33 30.52 17.41c-1.483-2.92-.05-14.548 15.963-8.025v.001Z" fill="#0F805D"></path><path d="M13.62 9.385C17.178 25.991 28.1 20.33 29.583 17.41c1.484-2.92.05-14.548-15.963-8.025v.001Z" fill="#0F805D"></path><path d="M46.483 9.385C42.925 25.991 32.004 20.33 30.52 17.41c-1.483-2.92-.05-14.548 15.963-8.025v.001Z" stroke="#000" stroke-width="2" stroke-miterlimit="10" stroke-linecap="round" stroke-linejoin="round"></path><path d="M37.977 12.745c-2.609 1.002-5.95 2.613-7.43 4.713M13.62 9.385C17.178 25.991 28.1 20.33 29.583 17.41c1.484-2.92.05-14.548-15.963-8.025v.001Z" stroke="#000" stroke-width="2" stroke-miterlimit="10" stroke-linecap="round" stroke-linejoin="round"></path><path d="M22.127 12.745c2.609 1.002 5.949 2.613 7.429 4.713m-12.931 3.824s-2.15 1.29-2.63 3.413c-.478 2.123 0 4.447 0 4.447s-3.37 1.39-3.37 5.765c0 4.374 2.843 5.61 2.843 5.61s.034 5.163 3.216 7.947c3.183 2.785 6.522 2.798 6.522 2.798s1.736 3.673 6.846 3.673c5.109 0 6.846-3.673 6.846-3.673s3.459-.505 6.522-2.798c3.063-2.291 2.98-7.946 2.98-7.946s3.08-1.236 3.08-5.611-3.372-5.764-3.372-5.764.48-2.325 0-4.448c-.481-2.122-2.63-3.413-2.63-3.413" stroke="#000" stroke-width="2" stroke-miterlimit="10" stroke-linecap="round" stroke-linejoin="round"></path><path d="M35.202 24.563s-2.18 2.305-4.87 2.305m-5.055-2.305s2.18 2.305 4.87 2.305m11.571 6.069c0 2.41-2.068 4.363-4.619 4.363m-4.797-4.363c0 2.41 2.069 4.363 4.62 4.363m-8.686-4.363c0 2.41-2.069 4.363-4.62 4.363m-4.797-4.363c0 2.41 2.068 4.363 4.62 4.363m11.482 7.585c-.87 1.157-2.634 1.95-4.668 1.95m-4.969-2.092c.83 1.234 2.653 2.091 4.768 2.091m-4.81-1.792c0 1.033-.641 1.965-1.665 2.62m11.394-2.62c0 1.127.76 2.133 1.95 2.79" stroke="#000" stroke-width="2" stroke-miterlimit="10" stroke-linecap="round" stroke-linejoin="round"></path><path d="M19.51 35.56c0 1.972-1.385 3.638-3.286 4.178m4.62-15.205c0 2.58-2.07 4.671-4.62 4.671m22.42-4.67c0 2.579 2.068 4.67 4.62 4.67m-2.222 6.356c0 1.883 1.264 3.488 3.034 4.1" stroke="#000" stroke-width="2" stroke-miterlimit="10" stroke-linecap="round" stroke-linejoin="round"></path><path d="M78.48 45.2c-.614 0-.974-.307-1.08-.92a22.123 22.123 0 0 1-.2-2.88c-.08-2.053-.147-4.187-.2-6.4-.027-2.24-.04-3.867-.04-4.88a3.444 3.444 0 0 0-1.4 1.12c-.32.453-.627 1.04-.92 1.76-.48 1.307-.72 2.6-.72 3.88v1c0 .16-.014.653-.04 1.48a26.88 26.88 0 0 1-.24 2.72c-.16 1.333-.827 2.333-2 3-.187.107-.427.16-.72.16-.347 0-.64-.08-.88-.24-.214-.187-.28-.44-.2-.76.053-.187.133-.32.24-.4.106-.08.253-.16.44-.24.213-.08.373-.16.48-.24.4-.373.6-.88.6-1.52l.04-3.36c.053-1.307.12-2.307.2-3 .08-.72.28-1.547.6-2.48.106-.347.36-.893.76-1.64.4-.773.693-1.267.88-1.48-1.414-.693-2.4-1.56-2.96-2.6-.534-1.04-.8-2.56-.8-4.56 0-1.573.28-3.12.84-4.64.56-1.493 1.48-2.44 2.76-2.84l1.76-.6c.24-.107.506-.16.8-.16.56 0 1.2.24 1.92.72.453.267.68.707.68 1.32-.16 2.24-.24 3.933-.24 5.08V30.48c0 2.827.026 4.96.08 6.4.026 1.093.066 2.067.12 2.92.053.853.093 1.56.12 2.12l.12 2.2v.24c0 .347-.054.573-.16.68-.107.107-.32.16-.64.16ZM76.8 16.16c-.134.053-.44.16-.92.32-.454.16-.854.347-1.2.56-.4.187-.774.587-1.12 1.2a8.954 8.954 0 0 0-.76 1.88c-.187.667-.267 1.173-.24 1.52l.08 1.76c0 .827.013 1.48.04 1.96.026.747.24 1.373.64 1.88.426.48 1.013.813 1.76 1 .293.08.626.2 1 .36.4.133.693.24.88.32l-.16-12.76Zm7.637 29.16c-.027-.107-.08-.293-.16-.56a2.057 2.057 0 0 1-.04-.68c.053-3.093.133-5.4.24-6.92.026-.56.04-1.387.04-2.48 0-1.973-.094-4.36-.28-7.16-.16-3.413-.24-6-.24-7.76 0-.4.16-.76.48-1.08.32-.32.706-.48 1.16-.48 1.52 0 2.84.12 3.96.36.533.107.88.293 1.04.56.16.24.213.653.16 1.24-.374.24-.76.36-1.16.36-.134 0-.334-.027-.6-.08-.24-.053-.88-.107-1.92-.16h-.08c-.374 0-.56.2-.56.6-.134 3.867-.2 6.067-.2 6.6.053 2.773.106 4.867.16 6.28 0 .187.013.413.04.68.026.267.026.493 0 .68-.08 1.227-.12 2.52-.12 3.88 0 2.213.04 3.76.12 4.64-.027.587-.12.987-.28 1.2-.16.24-.454.36-.88.36-.107 0-.4-.027-.88-.08Zm13.773.44c-.694 0-1.334-.227-1.92-.68-.587-.427-1.067-1.013-1.44-1.76-.773-1.627-1.253-3.4-1.44-5.32-.24-1.813-.36-3.56-.36-5.24 0-.32.013-.587.04-.8v-.72c0-.133-.014-.2-.04-.2v-.72l.04-2.8c.026-.853.133-2.213.32-4.08.133-1.28.44-2.52.92-3.72.186-.533.427-.933.72-1.2.293-.293.627-.44 1-.44 1.067 0 2.026.2 2.88.6a5.872 5.872 0 0 1 2.16 1.6c.533.667.987 1.493 1.36 2.48.373.96.64 1.987.8 3.08.16 1.12.24 2.307.24 3.56v.32c0 .827.013 1.573.04 2.24l.04 2.28c0 7.68-1.787 11.52-5.36 11.52Zm-.16-1.68c.48 0 .92-.187 1.32-.56.4-.4.707-.933.92-1.6.507-1.36.813-2.827.92-4.4.133-1.36.2-2.533.2-3.52 0-1.2-.093-2.773-.28-4.72-.16-2.053-.24-3.587-.24-4.6v-.72c-.053-1.013-.4-1.893-1.04-2.64-.613-.747-1.373-1.12-2.28-1.12-.907 0-1.507.52-1.8 1.56-.267.827-.4 1.893-.4 3.2 0 .507.013.933.04 1.28v1.08l-.08 1.84c-.053.56-.08 1.173-.08 1.84 0 1.44.04 2.867.12 4.28.106 2 .373 3.947.8 5.84.427 1.973 1.053 2.96 1.88 2.96Zm23.843 5.84c-.213.053-.373.08-.48.08-.32 0-.547-.2-.68-.6-.107-.32-.16-.72-.16-1.2l.04-2.76c0-.16-.013-.307-.04-.44l-.08-.4h-4.6c.267 0-.373.133-1.92.4-1.52.24-2.707.4-3.56.48l-1.8.16-2 .2v.88c.027.347.027.76 0 1.24v.2c0 .427-.107.747-.32.96-.213.213-.413.32-.6.32-.107 0-.267-.053-.48-.16-.48-.347-.747-.827-.8-1.44l-.12-2.92c-.053-1.04.373-1.56 1.28-1.56.507-.027.907-.16 1.2-.4.293-.24.64-.613 1.04-1.12.4-.533.707-1.12.92-1.76.24-.667.467-1.467.68-2.4.24-1.013.413-2 .52-2.96.107-.96.24-2.333.4-4.12.24-2.8.36-5.613.36-8.44l-.04-2.24c0-.507.147-.92.44-1.24.293-.347.693-.52 1.2-.52.16 0 .28.013.36.04 1.227.213 2.227.347 3 .4h.2c.347 0 .547-.067.6-.2.24-.32.533-.48.88-.48.24 0 .453.053.64.16.427.16.707.56.84 1.2l-.2 6.84c0 3.707.013 6.48.04 8.32 0 .96.027 2.427.08 4.4l.04 2.2c0 .213.013.413.04.6l.08.56c.533.053.933.08 1.2.08.213 0 .373-.013.48-.04a1.941 1.941 0 0 1 1.56.44c.48.347.72.8.72 1.36 0 .72-.053 1.8-.16 3.24 0 .373-.027.907-.08 1.6-.053.56-.293.907-.72 1.04Zm-11.52-6.36c1.493-.133 2.667-.253 3.52-.36a17.47 17.47 0 0 0 2.6-.6c.267-3.227.4-6.68.4-10.36 0-3.413-.133-7.16-.4-11.24-.693-.027-1.987-.093-3.88-.2l-.04 1.88a820.22 820.22 0 0 0-.44 9.2 33.292 33.292 0 0 1-1.56 8.96c-.053.16-.173.56-.36 1.2a4.444 4.444 0 0 1-.76 1.6l.92-.08Zm22.795 1.8c-.614 0-1.067-.093-1.36-.28-.294-.187-.44-.533-.44-1.04 0-.8-.134-2.16-.4-4.08l-.16-.84-3.96-.6c-.16.613-.387 1.853-.68 3.72-.16 1.307-.414 2.173-.76 2.6-.187.24-.454.36-.8.36a1.5 1.5 0 0 1-.88-.28c-.267-.213-.4-.467-.4-.76l.08-.2.04-.16c1.76-6.853 3.093-13.613 4-20.28 0-.107.013-.28.04-.52.026-.267.053-.64.08-1.12.08-.987.16-1.773.24-2.36.106-.587.266-1.027.48-1.32h1.36c.373 0 .693.093.96.28.266.16.4.4.4.72 0 2.027.28 5.04.84 9.04.533 4.107.8 6.987.8 8.64 0 .16.066.573.2 1.24.133.613.2 1.013.2 1.2 0 .187.133.987.4 2.4.24 1.28.36 2.107.36 2.48v.04c0 .587-.214.96-.64 1.12Zm-2.64-7.68c-.08-.4-.12-.893-.12-1.48 0-2.4-.214-5.467-.64-9.2l-.4-4.16c-1.147 6.267-1.934 11-2.36 14.2.4.267 1.573.48 3.52.64Z" fill="#0F805D"></path></svg><svg fill="none" id="telegram-mobile" viewBox="0 0 32 32"><circle cx="16" cy="16" r="15.5" stroke="#0F805D"></circle><path d="M23.156 7.812a1.242 1.242 0 0 0-1.257-.195L7.565 13.403a1.235 1.235 0 0 0 .062 2.307l3.093 1.074 1.676 5.54c.003.012.014.02.019.03a.39.39 0 0 0 .255.234c.008.003.013.01.021.012h.008c.062.014.126.01.186-.009.006-.001.013-.001.02-.004a.394.394 0 0 0 .153-.097c.005-.006.013-.007.017-.012l2.41-2.66 3.518 2.724c.214.167.477.257.748.257a1.24 1.24 0 0 0 1.215-.985L23.576 9a1.225 1.225 0 0 0-.42-1.189v.001Zm-9.885 10.024-.566 2.75-1.18-3.903 5.852-3.048-3.998 3.999a.4.4 0 0 0-.108.202Zm6.91 3.818a.432.432 0 0 1-.277.319.42.42 0 0 1-.411-.063l-3.81-2.95a.4.4 0 0 0-.541.047l-1.678 1.849.565-2.742 5.751-5.752a.4.4 0 0 0-.467-.637l-8.29 4.318-3.134-1.09a.42.42 0 0 1-.289-.393.426.426 0 0 1 .267-.414L22.2 8.359a.429.429 0 0 1 .446.069.418.418 0 0 1 .146.414l-2.61 12.812Z" fill="#0F805D"></path></svg><svg fill="none" id="telegram" viewBox="0 0 40 40"><circle cx="20" cy="20" r="19.5" stroke="#0F805D"></circle><path d="M28.945 9.765a1.552 1.552 0 0 0-1.572-.244L9.456 16.754a1.543 1.543 0 0 0 .078 2.884L13.4 20.98l2.095 6.926c.004.014.017.023.023.036a.488.488 0 0 0 .319.293c.01.004.017.013.027.015h.006l.003.001a.449.449 0 0 0 .233-.012c.008-.002.016-.002.025-.005a.496.496 0 0 0 .191-.122c.006-.007.016-.008.022-.014l3.013-3.326 4.397 3.405c.267.21.596.322.935.322.734 0 1.367-.514 1.518-1.23l3.262-16.019a1.533 1.533 0 0 0-.524-1.486v.001Zm-12.357 12.53-.707 3.437-1.475-4.878 7.315-3.81-4.997 4.998a.498.498 0 0 0-.136.253Zm8.639 4.772a.54.54 0 0 1-.347.4.525.525 0 0 1-.514-.079L19.603 23.7a.5.5 0 0 0-.676.06L16.83 26.07l.706-3.427 7.189-7.19a.5.5 0 0 0-.584-.797l-10.363 5.398-3.917-1.362A.527.527 0 0 1 9.5 18.2a.532.532 0 0 1 .334-.518l17.914-7.233a.536.536 0 0 1 .558.086.523.523 0 0 1 .182.518l-3.261 16.015Z" fill="#0F805D"></path></svg><svg fill="none" id="vk-mobile" viewBox="0 0 32 32"><circle cx="16" cy="16" r="15.5" stroke="#0F805D"></circle><g clip-path="url(#vk-mobile_0)"><path d="M7.4 13.175c0-.502.343-.774 1.03-.813l2.644.015c.178 0 .296.074.355.222.272.74.577 1.378.914 1.915a23.16 23.16 0 0 0 1.323 1.857.242.242 0 0 0 .23.133.224.224 0 0 0 .196-.104l.053-.162.018-2.56c0-.177-.05-.295-.151-.355-.1-.059-.287-.103-.56-.133-.212-.03-.319-.138-.319-.325 0-.04.006-.07.018-.089.248-.64.958-.961 2.13-.961l.994-.015c.45 0 .822.093 1.118.28.296.188.444.484.444.888v3.358c.083.05.16.074.23.074.178 0 .332-.088.462-.266 1.302-1.519 2.006-2.534 2.112-3.047 0-.01.012-.035.036-.074.083-.148.219-.276.408-.385.19-.108.355-.182.497-.222.047-.02.1-.03.16-.03h2.751l.178.016c.236 0 .42.093.55.28a.51.51 0 0 1 .098.193c.017.069.03.138.035.207l.009.118v.104c-.083.404-.293.836-.63 1.294-.338.459-.767.954-1.287 1.487-.52.533-.846.883-.976 1.05-.107.119-.16.227-.16.326 0 .079.047.167.142.266l2.591 2.722c.142.158.213.33.213.518 0 .226-.106.414-.32.562a1.483 1.483 0 0 1-.762.251l-.302.015h-2.698a.656.656 0 0 0-.071.007.658.658 0 0 1-.071.008c-.26 0-.503-.094-.728-.281-.083-.08-.639-.661-1.668-1.746a.893.893 0 0 0-.249-.192c-.047.158-.11.384-.186.68-.077.296-.133.508-.169.636l-.053.252c-.119.345-.367.552-.746.621l-.248.015h-1.74c-.982 0-1.961-.375-2.937-1.124-.976-.75-1.855-1.719-2.636-2.907-.781-1.188-1.509-2.572-2.183-4.15a1.012 1.012 0 0 1-.09-.428Zm10.668 3.832a1.35 1.35 0 0 1-.675-.17c-.201-.114-.302-.269-.302-.466v-3.403c0-.197-.059-.337-.177-.421-.119-.084-.326-.126-.621-.126l-1.012.03c-.509 0-.894.074-1.154.222.52.207.781.542.781 1.005v2.604a.852.852 0 0 1-.355.614c-.213.163-.45.244-.71.244-.355 0-.627-.143-.816-.429-.923-1.164-1.61-2.268-2.06-3.314l-.16-.384-2.36-.015c-.154 0-.24.007-.257.022-.018.015-.027.057-.027.126 0 .089.012.182.036.281l.372.828c.994 2.14 2.074 3.827 3.24 5.06 1.165 1.232 2.31 1.849 3.434 1.849h1.775c.071 0 .125-.018.16-.052a.425.425 0 0 0 .089-.2l.035-.148.338-1.302c.094-.177.177-.295.248-.354a.698.698 0 0 1 .462-.163c.284 0 .573.143.87.429l1.508 1.597c.095.129.195.193.302.193h2.929c.355 0 .532-.074.532-.222a.252.252 0 0 0-.053-.148l-2.574-2.678c-.201-.207-.302-.429-.302-.665 0-.237.095-.464.284-.68.154-.198.453-.526.897-.985.444-.458.831-.887 1.162-1.287.332-.399.55-.761.657-1.087l.053-.192a.194.194 0 0 1-.017-.096.302.302 0 0 0-.018-.111h-2.787a.973.973 0 0 0-.426.266l-.106.281c-.296.68-1.071 1.73-2.326 3.151a1.358 1.358 0 0 1-.87.296Z" fill="#0F805D"></path></g><defs><clipPath id="vk-mobile_0"><path fill="#fff" transform="translate(6.4 8.8)" d="M0 0h19.2v15.086H0z"></path></clipPath></defs></svg><svg fill="none" id="vk" viewBox="0 0 40 40"><circle cx="20" cy="20" r="19.5" stroke="#0F805D"></circle><path d="M9 15.926c0-.704.439-1.084 1.316-1.139l3.381.02c.227 0 .378.104.454.311.348 1.036.737 1.93 1.168 2.682a32.6 32.6 0 0 0 1.69 2.6c.061.124.16.186.296.186a.28.28 0 0 0 .25-.145l.067-.228.023-3.583c0-.248-.064-.414-.193-.497-.128-.083-.367-.145-.715-.186-.272-.042-.408-.193-.408-.456 0-.055.008-.096.023-.124.317-.898 1.225-1.346 2.723-1.346l1.27-.021c.575 0 1.052.131 1.43.393.378.263.567.677.567 1.243v4.701a.55.55 0 0 0 .295.104c.227 0 .424-.124.59-.373 1.664-2.126 2.564-3.548 2.7-4.266 0-.014.015-.048.046-.104.105-.207.28-.386.521-.538.242-.152.454-.256.636-.31a.487.487 0 0 1 .204-.042h3.517l.227.02c.303 0 .537.132.703.394a.74.74 0 0 1 .125.27c.023.096.038.192.046.29l.011.165v.145c-.106.566-.374 1.17-.806 1.812-.43.642-.979 1.336-1.645 2.081-.665.746-1.081 1.236-1.248 1.47-.136.166-.204.318-.204.456 0 .11.06.235.182.373l3.313 3.81c.181.222.272.463.272.726 0 .317-.136.58-.409.787a1.788 1.788 0 0 1-.975.352l-.386.02h-3.449a.756.756 0 0 0-.09.01.763.763 0 0 1-.092.011c-.332 0-.642-.131-.93-.393-.106-.11-.817-.925-2.133-2.444a1.167 1.167 0 0 0-.317-.27c-.061.221-.14.539-.239.953-.098.414-.17.711-.215.89l-.068.353c-.152.483-.47.773-.953.87l-.318.02h-2.224c-1.255 0-2.507-.524-3.755-1.574-1.248-1.049-2.371-2.405-3.37-4.07-.998-1.663-1.928-3.6-2.79-5.808A1.532 1.532 0 0 1 9 15.926Zm13.637 5.364c-.318 0-.605-.08-.862-.238-.257-.159-.386-.377-.386-.653v-4.763c0-.276-.075-.473-.227-.59-.151-.117-.416-.176-.794-.176l-1.293.041c-.65 0-1.142.104-1.475.31.665.29.998.76.998 1.41v3.644c-.03.345-.181.632-.454.86a1.38 1.38 0 0 1-.907.341c-.454 0-.802-.2-1.044-.6-1.18-1.63-2.057-3.176-2.632-4.64l-.204-.538-3.018-.02c-.197 0-.307.01-.33.03-.022.021-.033.08-.033.177 0 .124.015.255.045.393l.477 1.16c1.27 2.996 2.65 5.357 4.14 7.083 1.49 1.726 2.954 2.588 4.391 2.588h2.27c.09 0 .158-.024.204-.072.045-.048.083-.142.113-.28l.045-.207.431-1.822c.122-.249.227-.414.318-.497a.846.846 0 0 1 .59-.228c.363 0 .734.2 1.112.6l1.929 2.237c.12.18.25.27.385.27h3.744c.454 0 .681-.104.681-.311a.375.375 0 0 0-.068-.207l-3.29-3.749c-.257-.29-.386-.6-.386-.932 0-.331.121-.649.363-.952.197-.277.579-.736 1.146-1.378a31.187 31.187 0 0 0 1.486-1.801c.424-.56.704-1.067.84-1.523l.068-.269a.295.295 0 0 1-.023-.134.458.458 0 0 0-.022-.156h-3.563a1.235 1.235 0 0 0-.544.373l-.137.393c-.378.953-1.369 2.424-2.972 4.412a1.642 1.642 0 0 1-1.112.414Z" fill="#0F805D"></path></svg><svg fill="none" id="youtube-mobile" viewBox="0 0 32 32"><circle cx="16" cy="16" r="15.5" stroke="#0F805D"></circle><path d="m18.565 15.752-3.6-2.4a.3.3 0 0 0-.465.248v4.8a.292.292 0 0 0 .157.263.339.339 0 0 0 .143.037.27.27 0 0 0 .165-.052l3.6-2.4a.293.293 0 0 0 0-.496ZM15.1 17.837v-3.675L17.86 16l-2.76 1.837Zm8.587-6.127a1.53 1.53 0 0 0-.907-1.02c-2.535-.975-6.608-.96-6.78-.96-.173 0-4.245-.015-6.78.96a1.53 1.53 0 0 0-.908 1.02c-.187.727-.412 2.063-.412 4.29s.225 3.563.412 4.29a1.53 1.53 0 0 0 .908 1.02c2.535.975 6.607.96 6.78.96h.052c.518 0 4.32-.03 6.728-.96a1.53 1.53 0 0 0 .907-1.02c.188-.727.413-2.063.413-4.29s-.225-3.563-.413-4.29Zm-.585 8.43a.9.9 0 0 1-.54.607c-2.43.938-6.517.923-6.562.923-.045 0-4.133.015-6.563-.923a.9.9 0 0 1-.54-.607c-.18-.698-.397-1.98-.397-4.14 0-2.16.217-3.443.397-4.14a.9.9 0 0 1 .54-.607c2.43-.938 6.518-.923 6.563-.923.045 0 4.132-.015 6.562.922a.9.9 0 0 1 .54.608c.18.697.398 1.98.398 4.14 0 2.16-.218 3.442-.398 4.14Z" fill="#0F805D"></path></svg><svg fill="none" id="youtube" viewBox="0 0 40 40"><circle cx="20" cy="20" r="19.5" stroke="#0F805D"></circle><path d="m23.206 19.69-4.5-3a.375.375 0 0 0-.581.31v6a.365.365 0 0 0 .197.328.42.42 0 0 0 .178.047.337.337 0 0 0 .206-.066l4.5-3a.366.366 0 0 0 0-.618Zm-4.331 2.607v-4.594L22.325 20l-3.45 2.297Zm10.734-7.66a1.913 1.913 0 0 0-1.134-1.274c-3.169-1.22-8.26-1.2-8.475-1.2-.216 0-5.306-.02-8.475 1.2a1.913 1.913 0 0 0-1.134 1.275c-.235.909-.516 2.578-.516 5.362 0 2.785.281 4.453.516 5.363a1.914 1.914 0 0 0 1.134 1.275c3.169 1.218 8.26 1.2 8.475 1.2h.066c.646 0 5.4-.038 8.409-1.2a1.914 1.914 0 0 0 1.134-1.275c.235-.91.516-2.578.516-5.363 0-2.784-.281-4.453-.516-5.362Zm-.73 10.538a1.123 1.123 0 0 1-.676.76c-3.037 1.171-8.147 1.153-8.203 1.153-.056 0-5.166.018-8.203-1.154a1.124 1.124 0 0 1-.675-.759c-.225-.872-.497-2.475-.497-5.175 0-2.7.272-4.303.497-5.175a1.124 1.124 0 0 1 .675-.76c3.037-1.171 8.147-1.152 8.203-1.152.056 0 5.166-.02 8.203 1.153a1.125 1.125 0 0 1 .675.76c.225.871.497 2.474.497 5.174s-.272 4.303-.497 5.175Z" fill="#0F805D"></path></svg></svg>