<svg width="60" height="60" fill="none" xmlns="http://www.w3.org/2000/svg"><path d="M50.125 27.5H9.875A2.375 2.375 0 0 0 7.5 29.875v.25A2.375 2.375 0 0 0 9.875 32.5h40.25a2.375 2.375 0 0 0 2.375-2.375v-.25a2.375 2.375 0 0 0-2.375-2.375ZM50.125 40H9.875A2.375 2.375 0 0 0 7.5 42.375v.25A2.375 2.375 0 0 0 9.875 45h40.25a2.375 2.375 0 0 0 2.375-2.375v-.25A2.375 2.375 0 0 0 50.125 40ZM50.125 15H9.875A2.375 2.375 0 0 0 7.5 17.375v.25A2.375 2.375 0 0 0 9.875 20h40.25a2.375 2.375 0 0 0 2.375-2.375v-.25A2.375 2.375 0 0 0 50.125 15Z" fill="#0F805D"/></svg>