<svg width="228" height="33" fill="none" xmlns="http://www.w3.org/2000/svg"><path d="M99.68 16.611a.233.233 0 0 0-.048-.129l.12-.002-.071.131Zm-9.587 13.495c.614-4.87 3.936-10.98 9.416-13.261.03-.012.048-.029.07-.044-1.346 2.554-2.055 5.28-3.574 7.803-1.323 2.199-3.56 3.94-5.912 5.502ZM72.05 28.37c-.474.797-3.178 4.263-2.94 2.225.195-1.682.75-3.328 1.372-4.94 1.284-3.329 3.687-6.118 6.877-8.469-.814.972-1.169 2.244-1.545 3.314-.94 2.675-2.267 5.35-3.764 7.87ZM64.92 5.705c-1.972-2.29 1.584-1.054 3.236-.64 2.733.684 5.334 1.842 7.704 3.087 3.627 1.91 7.131 3.97 9.416 6.88-7.886-1.253-15.684-3.9-20.357-9.327Zm23.772.68c-.895-.6-1.689-1.276-2.473-1.96.176.155-2.43-3.062-2.303-3.027 5.138 1.414 9.691 3.574 13.68 6.462 2.932 2.124 4.782 5.021 7.58 7.222-3.983-1.393-7.312-3.367-10.88-5.35-1.922-1.067-3.814-2.147-5.604-3.348ZM46.077 29.45c-1.553 1.466-1.945 1.117-1.939-.674.007-1.895 1.111-3.7 2.309-5.293 2-2.658 5.174-4.707 8.018-6.793l.087.001c-2.61 4.417-4.415 8.93-8.475 12.76Zm-15.514-9.067c-1.713 2.4-3.213 4.97-6.663 5.95.728-4.451 4.917-7.899 10.123-9.506-1.525.87-2.621 2.377-3.46 3.556ZM2.319 15.865c5.75-1.57 11.235-1.408 17.008-.3-1.084.01-2.165.019-3.248.027-.399.005-.554.29-.473.52-4.566.543-9.341 1.758-13.287-.247ZM19.931 5.11c7.569.07 13.153 5.203 18.072 9.41-3.301-1.22-6.948-1.83-10.07-3.468-3.049-1.599-5.38-3.936-8.002-5.942Zm19.44-1.561c9.053 1.4 16.408 5.136 20.999 11.354-8.108-1.571-17.282-5.216-20.998-11.354Zm72.263 12.22c-1.619-.043-3.239-.07-4.859-.106.065-.107.057-.24-.078-.362-3.509-3.14-6.252-6.633-10.349-9.356-3.893-2.588-8.605-4.28-13.382-5.616-.33-.092-.74.205-.601.47 1.933 3.693 5.398 6.19 9.436 8.545 3.538 2.063 7.628 5.124 12.062 6.255-5.747-.118-11.497-.208-17.248-.26-1.28-2.82-4.76-4.81-7.745-6.522-4.68-2.683-9.783-4.654-15.542-5.416-.356-.046-.668.162-.582.453 1.067 3.556 5.3 6.165 8.964 8.14 2.16 1.164 5.193 2.562 8.264 3.302a2401.89 2401.89 0 0 0-18.462-.025C58.964 7.923 47.352 3.78 38.603 2.594c-.35-.048-.815.185-.65.506C40.92 8.937 49.458 13.707 57.55 15.287c-5.863.023-11.725.055-17.588.102a.35.35 0 0 0-.129-.11c-.235-.113-.481-.208-.721-.31C33.828 9.984 27.544 3.68 18.435 4.19c-.518.028-.85.514-.439.826 2.765 2.097 5.24 4.55 8.348 6.353 3.34 1.939 7.283 3.137 11.28 4.039-5.107.04-10.212.085-15.318.13-6.766-2.802-14.984-2.741-21.928-.366-.436.15-.504.704-.155.937 2.553 1.702 5.731 1.896 8.976 1.837 3.899-.07 8.965-.231 12.66-1.255.147-.04.225-.143.226-.244 3.41.03 6.821.057 10.232.087-5.41 1.557-9.19 5.773-9.447 10.32-.014.244.311.414.6.355 2.906-.591 4.739-2.125 6.268-4.065.901-1.146 1.645-2.364 2.545-3.512 1.066-1.36 2.363-2.069 4.021-2.916a.345.345 0 0 0 .158-.146c5.536.045 11.071.085 16.61.114-6.021 3.578-11.653 8.632-9.957 14.899.069.255.502.47.827.365 3.017-.959 4.803-3.542 6.362-5.627 2.294-3.07 3.765-6.293 5.333-9.612.002-.005 0-.01.002-.017 6.93.032 13.86.045 20.788.021-5.818 3.223-9.195 10.176-8.707 15.495a.541.541 0 0 0 .587.458c2.871-.253 4.677-3.76 5.591-5.49 1.733-3.28 2.67-7.627 5.346-10.482a1626 1626 0 0 0 19.346-.2c-6.446 1.806-10.117 10.046-9.948 14.797.017.48.708.663 1.15.37 6.243-4.131 8.823-9.121 10.909-15.203 3.645-.066 7.29-.143 10.933-.24.372-.01.372-.44 0-.45ZM128.247 16.48l.12.002a.234.234 0 0 0-.047.13l-.073-.132Zm3.748 8.124c-1.519-2.522-2.229-5.249-3.574-7.803.023.015.04.032.07.044 5.481 2.281 8.801 8.391 9.417 13.26-2.353-1.56-4.59-3.302-5.913-5.501Zm20.19-4.104c-.375-1.07-.73-2.342-1.544-3.314 3.19 2.351 5.593 5.14 6.877 8.468.621 1.613 1.177 3.26 1.374 4.941.236 2.038-2.468-1.427-2.941-2.225-1.497-2.52-2.825-5.195-3.766-7.87Zm-9.462-5.467c2.287-2.91 5.79-4.972 9.419-6.88 2.369-1.246 4.969-2.404 7.702-3.088 1.652-.414 5.207-1.65 3.237.64-4.672 5.428-12.47 8.074-20.358 9.328Zm-9.018-5.3c-3.569 1.982-6.897 3.956-10.881 5.349 2.798-2.201 4.649-5.098 7.58-7.222 3.989-2.888 8.542-5.048 13.681-6.463.126-.034-2.48 3.183-2.304 3.027-.784.685-1.577 1.36-2.473 1.96-1.791 1.201-3.681 2.281-5.603 3.348Zm39.744 6.958h.086c2.844 2.085 6.017 4.134 8.018 6.792 1.199 1.593 2.302 3.398 2.31 5.293.005 1.79-.387 2.14-1.939.674-4.06-3.83-5.864-8.342-8.475-12.759Zm20.527.136c5.207 1.607 9.395 5.055 10.124 9.505-3.448-.979-4.95-3.549-6.663-5.95-.84-1.178-1.933-2.684-3.461-3.555Zm18.419-.716c.079-.229-.076-.514-.473-.519l-3.249-.027c5.773-1.108 11.259-1.27 17.008.3-3.946 2.005-8.72.79-13.286.246Zm-12.328-5.059c-3.121 1.639-6.768 2.248-10.07 3.469 4.919-4.208 10.504-9.34 18.072-9.41-2.622 2.005-4.954 4.342-8.002 5.941Zm-32.436 3.851c4.591-6.218 11.945-9.955 20.997-11.354-3.717 6.138-12.889 9.783-20.997 11.354Zm-51.265 1.315c3.644.098 7.288.175 10.933.241 2.086 6.082 4.665 11.072 10.91 15.204.441.292 1.132.109 1.149-.371.17-4.75-3.502-12.991-9.947-14.796 6.448.108 12.896.168 19.345.2 2.677 2.854 3.612 7.2 5.345 10.48.916 1.731 2.721 5.238 5.592 5.49a.54.54 0 0 0 .586-.457c.488-5.32-2.888-12.272-8.706-15.495 6.928.024 13.859.01 20.788-.02l.001.016c1.57 3.319 3.04 6.542 5.333 9.612 1.56 2.085 3.346 4.668 6.363 5.627.325.104.758-.11.827-.365 1.696-6.267-3.936-11.32-9.955-14.899 5.536-.03 11.073-.07 16.608-.114a.337.337 0 0 0 .158.145c1.658.848 2.955 1.556 4.022 2.917.899 1.148 1.644 2.366 2.546 3.512 1.527 1.94 3.36 3.474 6.266 4.065.288.06.615-.111.6-.355-.258-4.547-4.039-8.763-9.447-10.32 3.411-.03 6.823-.057 10.233-.087.001.101.079.203.226.244 3.694 1.024 8.76 1.184 12.659 1.255 3.244.06 6.424-.135 8.976-1.837.348-.233.282-.788-.155-.937-6.944-2.375-15.161-2.436-21.927.366-5.107-.045-10.212-.09-15.319-.13 3.996-.902 7.939-2.1 11.28-4.039 3.108-1.802 5.583-4.256 8.348-6.353.41-.312.08-.798-.439-.826-9.109-.51-15.394 5.794-20.677 10.777-.241.103-.485.198-.721.31a.35.35 0 0 0-.13.11c-5.861-.046-11.724-.078-17.587-.101 8.092-1.58 16.631-6.35 19.598-12.187.164-.321-.301-.554-.651-.506-8.75 1.186-20.361 5.33-22.91 12.677-6.154-.015-12.308-.007-18.462.025 3.073-.74 6.104-2.138 8.264-3.302 3.665-1.975 7.898-4.584 8.965-8.14.087-.291-.226-.5-.582-.453-5.759.762-10.864 2.733-15.543 5.416-2.984 1.712-6.464 3.701-7.745 6.522-5.749.052-11.5.142-17.247.26 4.433-1.13 8.524-4.192 12.063-6.255 4.037-2.354 7.501-4.852 9.436-8.545.139-.265-.273-.562-.602-.47-4.777 1.335-9.488 3.028-13.382 5.616-4.097 2.723-6.841 6.216-10.349 9.356-.135.121-.143.255-.079.362-1.619.037-3.239.063-4.858.107-.373.01-.373.44 0 .448Z" fill="#8E9892" fill-opacity=".7"/></svg>